<?xml version="1.0" encoding="UTF-8"?>
<svg version="1.1" xmlns="http://www.w3.org/2000/svg" width="1080" height="1080">
<path d="M0 0 C1.27254135 -0.00710495 2.5450827 -0.0142099 3.85618591 -0.02153015 C7.95100544 -0.04122282 12.04576228 -0.04648045 16.140625 -0.046875 C17.18860449 -0.04709593 17.18860449 -0.04709593 18.25775528 -0.04732132 C39.1176585 -0.04324425 59.7052923 0.17291999 80.390625 3.203125 C82.03448374 3.43667456 83.67836537 3.67006313 85.32226562 3.90332031 C109.33657156 7.35259375 132.99446452 11.76132764 156.390625 18.203125 C157.06057495 18.38661499 157.7305249 18.57010498 158.42077637 18.75915527 C187.30582868 26.70379111 215.37626938 37.22983793 242.390625 50.203125 C243.3698291 50.67153809 244.3490332 51.13995117 245.35791016 51.62255859 C285.22299822 70.81686026 322.6749169 94.80709089 356.30078125 123.5859375 C359.15605368 126.02212819 362.08062717 128.36345297 365.015625 130.703125 C369.98891595 134.73847073 374.43786825 139.12512437 378.8828125 143.72265625 C381.27154 146.08533843 383.76715925 148.11010922 386.390625 150.203125 C390.07770819 153.75560039 393.55545393 157.49390705 397.015625 161.265625 C397.53487549 161.83071777 398.05412598 162.39581055 398.58911133 162.97802734 C399.66373698 164.14765022 400.73803645 165.31757287 401.81201172 166.48779297 C403.30281302 168.1077079 404.80043183 169.72096251 406.30078125 171.33203125 C412.2634085 177.75124203 417.91534896 184.36129246 423.390625 191.203125 C424.31302875 192.33396457 425.23624696 193.46414015 426.16015625 194.59375 C450.44773378 224.42413568 471.45037543 257.30032722 488.26904297 291.90234375 C489.06241909 293.52985281 489.86148632 295.15459334 490.66455078 296.77734375 C500.07136836 315.78758988 507.74026243 335.21421862 514.75170898 355.21414185 C515.25830207 356.65748285 515.76787513 358.0997816 516.28051758 359.54098511 C516.99762645 361.56400894 517.70005283 363.59154161 518.3984375 365.62109375 C519.01162842 367.38102661 519.01162842 367.38102661 519.63720703 369.17651367 C520.390625 372.203125 520.390625 372.203125 519.390625 376.203125 C487.050625 376.203125 454.710625 376.203125 421.390625 376.203125 C418.0626549 369.54718479 414.94194245 362.98336893 412.078125 356.140625 C394.15309236 313.94716657 369.71915649 274.68701672 338.7265625 240.78515625 C337.47076888 239.39706331 336.22059123 238.00322124 335.0078125 236.57739258 C329.7515079 230.42168659 324.07895415 224.70533559 318.35839844 218.9855957 C316.65267902 217.27769444 314.95513473 215.56194455 313.2578125 213.84570312 C306.62273818 207.17652337 299.78381834 201.03865153 292.390625 195.203125 C291.09641104 194.13093166 289.80564277 193.05455527 288.51953125 191.97265625 C271.88153616 178.11954189 253.95483712 166.30277434 235.390625 155.203125 C234.38926514 154.60395264 234.38926514 154.60395264 233.36767578 153.99267578 C224.98056756 149.00916022 216.37192115 144.54528286 207.60253906 140.28466797 C205.30240182 139.15998718 203.01473989 138.01207619 200.7265625 136.86328125 C112.71104487 93.21260103 10.37000459 85.12923306 -127.12280273 119.63500977 C-152.24040135 128.38721685 -176.64674482 139.7966036 -199.609375 153.203125 C-200.39795898 153.66138672 -201.18654297 154.11964844 -201.99902344 154.59179688 C-213.29598802 161.20396792 -224.04007226 168.48860661 -234.609375 176.203125 C-235.65480469 176.96238281 -236.70023438 177.72164062 -237.77734375 178.50390625 C-248.99734783 186.78641938 -259.94580282 195.55423572 -270.203125 205.0078125 C-271.54621741 206.23316629 -272.89777108 207.44994212 -274.27905273 208.63208008 C-279.84614625 213.4021555 -285.0578537 218.49839179 -290.2277832 223.69116211 C-291.66962721 225.13836885 -293.11674616 226.58014526 -294.56445312 228.02148438 C-299.79215913 233.24516171 -304.82414937 238.5709985 -309.609375 244.203125 C-310.46660156 245.17894531 -311.32382812 246.15476562 -312.20703125 247.16015625 C-344.19797221 284.22097692 -368.93690975 327.89555197 -386.81591797 373.36254883 C-387.609375 375.203125 -387.609375 375.203125 -388.609375 376.203125 C-391.65339922 376.29843481 -394.67469208 376.32864139 -397.71899414 376.31665039 C-398.67499008 376.31679642 -399.63098602 376.31694244 -400.61595154 376.3170929 C-403.79216745 376.31639335 -406.96832552 376.30859903 -410.14453125 376.30078125 C-412.34028593 376.29891722 -414.53604102 376.29749325 -416.73179626 376.29649353 C-422.52358133 376.29266719 -428.3153415 376.28283591 -434.1071167 376.27178955 C-440.01216291 376.26157793 -445.91721313 376.25699645 -451.82226562 376.25195312 C-463.41797972 376.24121375 -475.01367529 376.22413593 -486.609375 376.203125 C-487.90895198 371.97677776 -486.86331667 369.0533945 -485.43359375 365 C-485.19312317 364.29392105 -484.95265259 363.5878421 -484.70489502 362.86036682 C-483.91431086 360.55357207 -483.1068183 358.25318809 -482.296875 355.953125 C-481.88563889 354.77114029 -481.88563889 354.77114029 -481.46609497 353.5652771 C-476.70211167 339.87922598 -471.48801815 326.45234832 -465.609375 313.203125 C-465.17802246 312.21844238 -464.74666992 311.23375977 -464.30224609 310.21923828 C-457.81200637 295.44973694 -450.60918356 281.21032749 -442.609375 267.203125 C-442.09117187 266.29320801 -441.57296875 265.38329102 -441.0390625 264.44580078 C-426.41056531 238.89547303 -409.84868076 214.59361756 -391.04052734 191.93847656 C-389.77299337 190.40152135 -388.52738293 188.84654334 -387.28515625 187.2890625 C-381.82390113 180.4448278 -375.91782788 174.08729007 -369.91015625 167.7265625 C-367.28399922 164.94086216 -364.73958205 162.09868975 -362.234375 159.203125 C-359.32707196 155.89714117 -356.23459574 153.05198268 -352.875 150.21484375 C-349.99744863 147.65977658 -347.31125103 144.94156398 -344.609375 142.203125 C-340.10406797 137.65394189 -335.50846907 133.33007924 -330.609375 129.203125 C-329.6915625 128.40777344 -328.77375 127.61242187 -327.828125 126.79296875 C-283.51548643 88.54275997 -232.02237152 57.67191684 -177.609375 36.203125 C-176.26359042 35.66019536 -174.9178934 35.11704863 -173.57226562 34.57373047 C-162.65834084 30.2042604 -151.63012663 26.53489517 -140.359375 23.203125 C-139.49464569 22.94577576 -138.62991638 22.68842651 -137.73898315 22.42327881 C-121.82519259 17.70018488 -105.87775218 13.54121183 -89.609375 10.203125 C-88.95984863 10.06926392 -88.31032227 9.93540283 -87.64111328 9.79748535 C-67.03846872 5.56992647 -46.57338015 2.87429975 -25.609375 1.203125 C-24.74621674 1.12093719 -23.88305847 1.03874939 -22.9937439 0.95407104 C-15.31826444 0.24787848 -7.70566027 0.02846658 0 0 Z " fill="#FEFEFE" transform="translate(523.609375,13.796875)"/>
<path d="M0 0 C32.67 0 65.34 0 99 0 C102.3122527 7.17654752 105.60203867 14.34527648 108.82788086 21.55786133 C126.23239423 60.19633963 149.86955933 95.35085731 178 127 C178.44956055 127.50740723 178.89912109 128.01481445 179.36230469 128.53759766 C191.39999402 142.04404199 204.01499994 155.95541151 218.41796875 166.953125 C220.77616021 168.82255363 222.98972856 170.77336643 225.22265625 172.7890625 C229.72681147 176.81584871 234.40679448 180.51657697 239.25 184.125 C240.10916016 184.76606689 240.96832031 185.40713379 241.85351562 186.06762695 C315.43033933 240.4565861 406.34602248 272.9426362 506 272 C507.31750244 271.97099609 507.31750244 271.97099609 508.66162109 271.94140625 C573.12561661 270.37052229 637.71909264 254.85045805 695.00585938 225.03173828 C697.11539073 223.94029858 699.23666031 222.87414434 701.359375 221.80859375 C721.33227019 211.67217394 740.16192022 199.52581851 758 186 C758.93827637 185.2891626 758.93827637 185.2891626 759.89550781 184.56396484 C768.88007148 177.71413351 777.5260026 170.47007442 786 163 C786.733396 162.35562988 787.46679199 161.71125977 788.22241211 161.04736328 C794.52217056 155.45135143 800.55817291 149.62807204 806.51391602 143.67138672 C808.05923066 142.1282647 809.61240446 140.59335694 811.16601562 139.05859375 C817.56371401 132.69640214 823.37300885 126.06448065 829 119 C829.93477963 117.89817193 830.87612622 116.80182875 831.828125 115.71484375 C839.50487787 106.91134166 846.32559692 97.57922997 853 88 C853.50144531 87.28215332 854.00289062 86.56430664 854.51953125 85.82470703 C863.42549511 72.99154209 871.32358262 59.59726311 879 46 C879.43441406 45.23333008 879.86882813 44.46666016 880.31640625 43.67675781 C887.05817099 31.67841908 892.49373996 19.12191959 897.90600586 6.47924805 C898.87221525 4.28959029 899.92965784 2.14068431 901 0 C933.67 0 966.34 0 1000 0 C1001.04876538 4.19506152 1000.92351793 5.09893696 999.5859375 8.98828125 C999.24425537 9.98811035 998.90257324 10.98793945 998.55053711 12.01806641 C998.16260986 13.10522949 997.77468262 14.19239258 997.375 15.3125 C996.96967041 16.45895996 996.56434082 17.60541992 996.14672852 18.78662109 C988.84478357 39.07601567 980.33441287 58.78007419 970.6875 78.0625 C970.36119598 78.71551086 970.03489197 79.36852173 969.69869995 80.0413208 C962.78544764 93.81718369 955.074532 107.05850021 947 120.1875 C946.34 121.27224609 945.68 122.35699219 945 123.47460938 C940.64185612 130.56936119 935.96201734 137.31728309 931 144 C930.16955265 145.16447106 929.3431985 146.33188767 928.5234375 147.50390625 C919.69986808 160.06546053 910.51918154 172.48017937 900.0546875 183.73046875 C897.85802511 186.15682017 895.84148287 188.68218468 893.8125 191.25 C888.52651833 197.79454874 882.55705475 203.60976292 876.55029297 209.48242188 C873.12352378 212.83687814 869.7555847 216.24803524 866.3984375 219.671875 C859.77830072 226.39881468 853.20287642 232.95718554 845.76953125 238.796875 C843.0705033 240.94391557 840.46588401 243.16918953 837.86474609 245.43237305 C831.68065388 250.81141072 825.37746775 255.92209164 818.73876953 260.73828125 C816.7468829 262.18367161 814.76246623 263.63908481 812.77734375 265.09375 C787.3171596 283.68555437 760.50802535 300.18746873 732.12548828 313.95947266 C729.91607097 315.04108724 727.72201538 316.15052235 725.52734375 317.26171875 C709.18755398 325.41414059 692.13452434 331.74645004 675 338 C673.97841797 338.37286133 672.95683594 338.74572266 671.90429688 339.12988281 C637.35467743 351.55825279 600.40099159 359.51796256 564 364 C562.2981958 364.22429687 562.2981958 364.22429687 560.56201172 364.453125 C520.03984668 369.64784377 477.517499 369.1198211 437 364 C436.30829712 363.91278687 435.61659424 363.82557373 434.90393066 363.73571777 C383.26896407 357.13196939 332.25815893 344.08820834 285 322 C284.38813843 321.71427124 283.77627686 321.42854248 283.14587402 321.13415527 C264.67494558 312.49299303 246.51521458 303.47374447 229 293 C228.0826709 292.45214844 227.1653418 291.90429688 226.22021484 291.33984375 C215.13146087 284.67770336 204.39966463 277.69017346 194 270 C192.14609141 268.66630785 190.29193585 267.33295891 188.4375 266 C177.59160936 258.07598912 167.16853029 249.77205213 157 241 C156.26007813 240.36191406 155.52015625 239.72382812 154.7578125 239.06640625 C152.82834064 237.38877309 150.91204076 235.69746304 149 234 C148.22269531 233.31550781 147.44539062 232.63101563 146.64453125 231.92578125 C141.34234447 227.21546648 136.27352855 222.34191939 131.32421875 217.26171875 C129.0287909 214.95301056 129.0287909 214.95301056 126.41796875 212.9453125 C124.18880094 211.15189478 122.45257879 209.37613703 120.625 207.1875 C118.38619018 204.56268848 116.10965506 202.0801308 113.625 199.6875 C109.85988856 195.9896227 106.62018827 191.9251707 103.31640625 187.81640625 C101.14014579 185.17039649 98.88426541 182.64331697 96.5625 180.125 C91.33351092 174.36409652 86.65097818 168.22678762 82 162 C81.45649902 161.27570801 80.91299805 160.55141602 80.35302734 159.80517578 C72.56892883 149.41550308 64.99128916 138.94119929 58 128 C57.50677246 127.22994629 57.01354492 126.45989258 56.50537109 125.66650391 C48.55528594 113.19237768 41.24029235 100.45468483 34.29003906 87.39941406 C33.19483067 85.36237621 32.07473665 83.34517468 30.9296875 81.3359375 C18.88736147 59.8209868 10.18656896 36.19255803 2 13 C1.51901855 11.70570068 1.51901855 11.70570068 1.02832031 10.38525391 C0.6005127 9.19875244 0.6005127 9.19875244 0.1640625 7.98828125 C-0.08649902 7.30934814 -0.33706055 6.63041504 -0.59521484 5.9309082 C-1 4 -1 4 0 0 Z " fill="#FEFEFE" transform="translate(40,699)"/>
<path d="M0 0 C0.58185059 0.42877441 1.16370117 0.85754883 1.76318359 1.29931641 C20.83159479 15.45290398 40.63448578 31.73831291 55.4375 50.375 C58.18901089 53.79579733 60.97985487 57.13113115 63.9375 60.375 C68.96355895 65.99352169 73.53039223 71.93646226 78 78 C78.78552246 79.06541016 78.78552246 79.06541016 79.58691406 80.15234375 C94.6571707 100.76274733 112.04968135 125.41798026 120 150 C119.67 150.99 119.34 151.98 119 153 C109.56035536 153.44231508 100.12432222 153.77878076 90.67654037 153.98443127 C86.28777494 154.08320273 81.9061412 154.21677644 77.52148438 154.43334961 C49.24567402 155.79394101 49.24567402 155.79394101 42.29330444 151.21881104 C38.17217629 146.89583779 35.98775853 142.06106126 34.01554871 136.48835754 C32.27590455 132.22577848 29.54245082 128.67688695 26.8125 125 C25.80766908 123.59831866 24.80363394 122.19606612 23.80078125 120.79296875 C20.0655122 115.68999712 16.10002964 110.81337939 12 106 C11.12406706 104.93957202 10.24911695 103.87833166 9.375 102.81640625 C-1.84016983 89.31626933 -14.13888005 76.78326257 -28 66 C-29.70951291 64.56390298 -31.41780341 63.12634982 -33.125 61.6875 C-55.30091069 43.62056286 -80.54137251 28.83326994 -107 18 C-107.77553223 17.6803125 -108.55106445 17.360625 -109.35009766 17.03125 C-131.50447405 7.99116974 -154.43511509 2.0231809 -178 -2 C-179.40330566 -2.2477417 -179.40330566 -2.2477417 -180.83496094 -2.50048828 C-195.46598385 -4.98349972 -210.01019486 -5.2836782 -224.8125 -5.3125 C-226.16405182 -5.31801376 -226.16405182 -5.31801376 -227.54290771 -5.32363892 C-244.05437188 -5.35880811 -260.5057001 -4.36152814 -276.75 -1.25 C-277.6486377 -1.08081055 -278.54727539 -0.91162109 -279.47314453 -0.73730469 C-305.2143565 4.26090271 -330.33990022 11.6076844 -354 23 C-354.66902344 23.31936523 -355.33804688 23.63873047 -356.02734375 23.96777344 C-377.93070008 34.48181144 -397.97503133 46.89846845 -417 62 C-417.92167969 62.72703125 -418.84335937 63.4540625 -419.79296875 64.203125 C-435.59995782 76.88521147 -450.4544945 91.07768041 -463 107 C-463.91795401 108.10764439 -464.83867784 109.21299738 -465.76171875 110.31640625 C-472.81978434 118.82485527 -478.96543989 127.75188106 -484.89453125 137.078125 C-485.3838916 137.82122925 -485.87325195 138.5643335 -486.37744141 139.32995605 C-488.06099194 141.96526293 -488.06099194 141.96526293 -489.24139404 144.84913635 C-490.84764251 148.17057338 -492.30712673 150.45899668 -495 153 C-500.6290747 154.55660853 -506.07545903 154.286345 -511.87109375 154.07421875 C-513.52013443 154.05368123 -515.16924261 154.0380331 -516.81837463 154.02705383 C-521.14224218 153.98521202 -525.46199173 153.87732393 -529.78424072 153.75531006 C-534.20129682 153.64242217 -538.61902406 153.59246892 -543.03710938 153.53710938 C-551.69328842 153.41942081 -560.3461309 153.23190122 -569 153 C-570.16615397 149.50153809 -569.88224042 149.10641756 -568.3671875 145.921875 C-567.98014648 145.10267578 -567.59310547 144.28347656 -567.19433594 143.43945312 C-566.75895508 142.55193359 -566.32357422 141.66441406 -565.875 140.75 C-565.19872559 139.3568457 -565.19872559 139.3568457 -564.50878906 137.93554688 C-548.8912144 106.2338848 -529.06785458 76.59859523 -505.24609375 50.46484375 C-503.74820488 48.82107353 -502.26116833 47.16734844 -500.78515625 45.50390625 C-493.02985187 36.76726283 -484.89167462 28.5760697 -476 21 C-474.98352323 20.10904375 -473.96797582 19.21702661 -472.953125 18.32421875 C-464.29928678 10.75132837 -455.31263029 3.7433788 -446 -3 C-445.44489746 -3.4031543 -444.88979492 -3.80630859 -444.31787109 -4.22167969 C-414.56255412 -25.69383398 -381.60268995 -42.02722707 -347 -54 C-346.12891602 -54.30276855 -345.25783203 -54.60553711 -344.36035156 -54.91748047 C-325.75878182 -61.2997821 -306.39497567 -65.81231093 -287 -69 C-286.28682617 -69.1247168 -285.57365234 -69.24943359 -284.83886719 -69.37792969 C-190.93028714 -85.63828664 -90.78342622 -62.4189027 0 0 Z " fill="#FEFEFE" transform="translate(765,237)"/>
<path d="M0 0 C9.65748427 -0.23207896 19.31400399 -0.40956613 28.97367191 -0.51812172 C33.45960787 -0.5702348 37.94363158 -0.64086217 42.4284668 -0.75439453 C46.75990383 -0.86335277 51.08950681 -0.92290044 55.42220879 -0.94877243 C57.07183144 -0.96719851 58.72135761 -1.00318599 60.37019539 -1.05730057 C73.28738019 -1.46423521 73.28738019 -1.46423521 77.51177979 2.14749146 C79.31441398 4.69602405 80.66807413 7.1830626 82 10 C82.9248155 11.39499082 83.87107484 12.7763734 84.8515625 14.1328125 C85.30337891 14.78540039 85.75519531 15.43798828 86.22070312 16.11035156 C96.11328562 30.30256135 106.99275465 43.54831621 119 56 C119.84546387 56.87833496 119.84546387 56.87833496 120.70800781 57.77441406 C128.08698541 65.39786358 135.63908395 72.44836821 144 79 C145.19973776 79.97562944 146.39753815 80.95364441 147.59375 81.93359375 C155.1205286 88.07975493 162.73247827 93.86981684 171 99 C172.09272217 99.680625 172.09272217 99.680625 173.20751953 100.375 C183.53543989 106.77293736 193.93802653 112.85310652 204.93652344 118.02587891 C206.34518026 118.69087426 207.74933284 119.36547424 209.14941406 120.04833984 C249.49277004 139.70844926 294.78262411 149.50416703 339.5625 149.3125 C340.47720062 149.31034485 341.39190125 149.3081897 342.33432007 149.30596924 C357.38902763 149.24933875 372.13832166 148.57688861 387 146 C388.14645996 145.80132324 389.29291992 145.60264648 390.47412109 145.39794922 C419.11914186 140.25594267 446.80047695 131.70545432 473 119 C473.70785645 118.66693848 474.41571289 118.33387695 475.14501953 117.99072266 C493.60537422 109.29689084 511.02059589 98.71880919 527 86 C527.80695312 85.37222656 528.61390625 84.74445313 529.4453125 84.09765625 C531.99079678 82.09646363 534.49968673 80.05735879 537 78 C537.50192871 77.58975586 538.00385742 77.17951172 538.52099609 76.75683594 C551.72319454 65.91260041 564.41480881 54.07486851 574.96484375 40.59765625 C577.23263147 37.70307116 579.6121391 34.92116688 582 32.125 C587.09296906 26.02289775 591.59023416 19.60674596 596 13 C596.37995117 12.43087891 596.75990234 11.86175781 597.15136719 11.27539062 C598.93010107 8.60954899 600.70400566 5.94075333 602.46875 3.265625 C604 1 604 1 605 0 C607.30053835 -0.09443335 609.60402173 -0.11742128 611.90649414 -0.11352539 C612.62840439 -0.11367142 613.35031464 -0.11381744 614.09410095 -0.1139679 C616.49114947 -0.11326869 618.88812123 -0.10547595 621.28515625 -0.09765625 C622.94282489 -0.0957921 624.60049407 -0.09436818 626.25816345 -0.09336853 C630.62954214 -0.08954312 635.00088781 -0.07971265 639.37225342 -0.06866455 C643.82954461 -0.05845092 648.28684111 -0.05387101 652.74414062 -0.04882812 C661.49610893 -0.0380904 670.24805036 -0.02101371 679 0 C680.23867321 3.80412609 679.51131386 5.65662556 677.7019043 9.22631836 C677.34652588 9.8941333 676.99114746 10.56194824 676.625 11.25 C676.25995361 11.95455322 675.89490723 12.65910645 675.51879883 13.38500977 C674.36217625 15.59910179 673.18470215 17.80081998 672 20 C671.6405127 20.67208496 671.28102539 21.34416992 670.91064453 22.03662109 C656.49671029 48.81859813 638.57330805 73.62939553 618 96 C616.54136797 97.64556862 615.08304105 99.29140772 613.625 100.9375 C606.23502265 109.13998795 598.43302428 116.87244389 590 124 C589.06929687 124.80824219 588.13859375 125.61648438 587.1796875 126.44921875 C539.3645715 167.79775199 481.83881026 195.91269347 420.20849609 209.50927734 C418.25611553 209.94309173 416.3092035 210.40135986 414.36328125 210.86328125 C324.34977206 231.63562953 223.17538038 211.50724121 142.125 162.5 C132.83294394 156.68422732 123.82479477 150.50055012 115 144 C114.1352002 143.36481445 114.1352002 143.36481445 113.25292969 142.71679688 C92.9496393 127.70639707 73.38444562 110.22398101 57 91 C55.78183594 89.59814453 55.78183594 89.59814453 54.5390625 88.16796875 C36.96634211 67.83427897 21.97867645 45.51195711 9 22 C8.51917969 21.13407227 8.03835937 20.26814453 7.54296875 19.37597656 C6.09730443 16.75833239 4.6699478 14.13167003 3.25 11.5 C2.80688477 10.69224121 2.36376953 9.88448242 1.90722656 9.05224609 C1.31119629 7.92810303 1.31119629 7.92810303 0.703125 6.78125 C0.17187012 5.7922168 0.17187012 5.7922168 -0.37011719 4.78320312 C-1 3 -1 3 0 0 Z " fill="#FEFEFE" transform="translate(200,699)"/>
<path d="M0 0 C1.16015625 -0.02449219 2.3203125 -0.04898437 3.515625 -0.07421875 C18.35884975 -0.12402823 31.85590738 5.29923195 42.625 15.625 C47.22204421 20.4909755 51.09370438 25.86275706 54.875 31.375 C59.11308919 29.84889908 61.10197846 26.70614012 63.625 23.1875 C72.32282723 11.58298471 82.80239106 4.49296924 96.875 0.375 C101.38861439 -0.07914784 105.90315612 -0.04105539 110.4375 -0.0625 C111.63697266 -0.09537109 112.83644531 -0.12824219 114.07226562 -0.16210938 C128.69870507 -0.24893659 141.91447562 5.67611291 152.625 15.625 C156.76732975 20.04547179 159.82334872 25.16968959 162.875 30.375 C163.27847656 31.00921875 163.68195313 31.6434375 164.09765625 32.296875 C170.99947062 44.15854837 170.87414495 59.85474758 168.15234375 72.81640625 C166.03370618 80.58474402 162.6339439 86.91135978 157.875 93.375 C157.36324219 94.08269531 156.85148438 94.79039062 156.32421875 95.51953125 C151.2846541 101.85962872 144.59521608 106.00938595 137.875 110.375 C141.505 110.705 145.135 111.035 148.875 111.375 C148.875 117.315 148.875 123.255 148.875 129.375 C152.505 129.375 156.135 129.375 159.875 129.375 C160.865 139.77 160.865 139.77 161.875 150.375 C163.855 150.375 165.835 150.375 167.875 150.375 C168.76139389 147.71581834 169.05489025 145.89435359 169.19140625 143.14453125 C169.23330078 142.34208984 169.27519531 141.53964844 169.31835938 140.71289062 C169.35767578 139.87951172 169.39699219 139.04613281 169.4375 138.1875 C169.50227539 136.9200293 169.50227539 136.9200293 169.56835938 135.62695312 C169.67431518 133.54315567 169.7751502 131.45909897 169.875 129.375 C171.56183495 128.66508436 173.24953005 127.95721271 174.9375 127.25 C176.02160156 126.79238281 177.10570312 126.33476562 178.22265625 125.86328125 C180.76543698 124.8271321 183.2910939 123.84781641 185.87109375 122.91796875 C186.53681396 122.67127441 187.20253418 122.42458008 187.88842773 122.17041016 C189.79593648 121.46666907 191.71035476 120.78174304 193.625 120.09765625 C197.42811059 118.0818248 198.78007552 116.07636896 200.875 112.375 C202.44441198 110.80558802 204.01634994 111.1300153 206.1875 111.0625 C206.96738281 111.02511719 207.74726562 110.98773438 208.55078125 110.94921875 C211.7823056 111.54121229 212.82294209 112.84676215 214.875 115.375 C215.39398193 118.0059967 215.39398193 118.0059967 215.42089844 121.03540039 C215.44061707 122.17501724 215.46033569 123.31463409 215.48065186 124.48878479 C215.48249481 126.33705116 215.48249481 126.33705116 215.484375 128.22265625 C215.50091125 129.50369736 215.51744751 130.78473846 215.53448486 132.104599 C215.57821672 135.52170617 215.59813682 138.93855848 215.61322021 142.355896 C215.6324926 145.76151703 215.6747332 149.1668379 215.71484375 152.57226562 C215.78699204 159.02004462 215.82934744 165.46771887 215.8581543 171.91583252 C215.87367377 175.10266588 215.89754886 178.28931492 215.92382812 181.47607422 C215.93403807 183.21191151 215.94384089 184.94775126 215.953125 186.68359375 C215.96059753 187.45421646 215.96807007 188.22483917 215.97576904 189.01881409 C215.98967799 194.14564402 215.98967799 194.14564402 214.875 196.375 C214.215 196.375 213.555 196.375 212.875 196.375 C212.545 197.365 212.215 198.355 211.875 199.375 C208.54191281 201.0415436 205.19952074 200.79127795 201.6875 199.6875 C199.875 198.375 199.875 198.375 198.6953125 195.98046875 C196.33987318 192.60905668 193.68046656 191.67928205 189.9375 190.375 C188.56568886 189.87305002 187.19460023 189.36912133 185.82421875 188.86328125 C185.14794434 188.61658691 184.47166992 188.36989258 183.77490234 188.11572266 C181.17931468 187.10377033 178.73984318 185.80921801 176.25 184.5625 C167.66341844 180.87239883 158.04444189 181.55133542 148.875 181.375 C148.875 192.925 148.875 204.475 148.875 216.375 C125.445 216.375 102.015 216.375 77.875 216.375 C77.215 218.025 76.555 219.675 75.875 221.375 C73.9296875 223.39453125 73.9296875 223.39453125 71.75 225.1875 C71.02554688 225.79207031 70.30109375 226.39664063 69.5546875 227.01953125 C69.00039063 227.46683594 68.44609375 227.91414062 67.875 228.375 C69.89526765 234.84744707 72.3636668 240.99949293 75.125 247.1875 C81.32447666 261.26985599 87.22520644 275.47399493 93.1047821 289.69221497 C94.87753027 293.97722854 96.66255676 298.25671998 98.4627533 302.53027344 C99.25964835 304.42519632 100.05184072 306.32200329 100.84204102 308.21972656 C101.79552855 310.50885653 102.75650757 312.79488606 103.72631836 315.07714844 C104.14534424 316.09067383 104.56437012 317.10419922 104.99609375 318.1484375 C105.3614624 319.01903809 105.72683105 319.88963867 106.10327148 320.78662109 C107.0039404 323.80746634 107.14843624 326.23847768 106.875 329.375 C104.8125 331.8125 104.8125 331.8125 101.875 333.375 C98.4375 333.40234375 98.4375 333.40234375 94.875 332.375 C93.11883884 329.984581 92.08079278 328.16820924 90.9375 325.5 C90.44564209 324.43881958 90.44564209 324.43881958 89.94384766 323.35620117 C88.88582469 321.04300342 87.87503456 318.71381355 86.875 316.375 C86.53291504 315.58013184 86.19083008 314.78526367 85.83837891 313.96630859 C84.11095243 309.93185325 82.41653498 305.88486506 80.7421875 301.828125 C79.21573147 298.14913352 77.5823739 294.53682875 75.875 290.9375 C73.2513526 285.3667088 70.95678447 279.6880674 68.6875 273.96484375 C68.13545898 272.57839661 68.13545898 272.57839661 67.57226562 271.16394043 C66.67169351 268.90154537 65.77264488 266.63855771 64.875 264.375 C64.86469254 265.01012009 64.85438507 265.64524017 64.84376526 266.29960632 C64.73476725 272.96813339 64.62025745 279.63655035 64.50268555 286.30493164 C64.45963269 288.78667881 64.41793974 291.26845 64.37768555 293.75024414 C64.31925688 297.33747565 64.25577994 300.92458956 64.19140625 304.51171875 C64.17469376 305.60393234 64.15798126 306.69614594 64.14076233 307.82145691 C64.0808196 311.00750158 63.98289664 314.19024623 63.875 317.375 C63.85291473 318.55865143 63.83082947 319.74230286 63.80807495 320.96182251 C63.76175934 322.12660126 63.71544373 323.29138 63.66772461 324.49145508 C63.63577499 325.54714188 63.60382538 326.60282867 63.57090759 327.69050598 C62.875 330.375 62.875 330.375 60.52076721 332.25053406 C57.14134206 333.68680875 55.36005985 333.43567039 51.875 332.375 C50.22233582 331.20304871 50.22233582 331.20304871 48.875 329.375 C48.47627258 326.62251282 48.47627258 326.62251282 48.44262695 323.2512207 C48.42283279 321.99013992 48.40303864 320.72905914 48.38264465 319.42976379 C48.37587488 318.05343779 48.36942802 316.67711017 48.36328125 315.30078125 C48.34643621 313.89257739 48.3282862 312.48438859 48.30888367 311.07621765 C48.26135785 307.37239282 48.23156556 303.668629 48.20544434 299.96459961 C48.17565158 296.18395942 48.12911693 292.40352955 48.08398438 288.62304688 C47.99792206 281.20713555 47.93059019 273.79120898 47.875 266.375 C45.47223972 269.47958035 43.86783091 272.38260414 42.34375 276.01171875 C41.63025391 277.6963623 41.63025391 277.6963623 40.90234375 279.41503906 C40.39832031 280.61870117 39.89429688 281.82236328 39.375 283.0625 C38.30459959 285.59351644 37.23015416 288.12281234 36.15625 290.65234375 C35.74838257 291.61528854 35.74838257 291.61528854 35.33227539 292.59768677 C32.5634926 299.12886165 29.72970372 305.63094062 26.875 312.125 C26.43091797 313.14037842 25.98683594 314.15575684 25.52929688 315.2019043 C24.32721901 317.93387859 23.10924445 320.65742144 21.875 323.375 C21.5133374 324.17276855 21.1516748 324.97053711 20.77905273 325.79248047 C18.23228327 331.17735394 18.23228327 331.17735394 14.9375 333 C11.46952884 333.42464953 9.87659074 333.12592793 6.875 331.375 C4.875 328.375 4.875 328.375 5.08666992 325.1159668 C5.88267764 321.3385663 7.00657684 318.08103876 8.48828125 314.51953125 C8.75272537 313.87764359 9.01716949 313.23575592 9.28962708 312.57441711 C10.14418422 310.50486264 11.00963696 308.44005586 11.875 306.375 C12.44926109 304.98651915 13.02266214 303.59768229 13.59521484 302.20849609 C15.40605865 297.82164316 17.23351085 293.44181191 19.0625 289.0625 C19.72187832 287.48105337 20.38122027 285.89959157 21.04052734 284.31811523 C24.04866976 277.10776177 27.06719818 269.90204457 30.12109375 262.7109375 C30.61134033 261.55634033 31.10158691 260.40174316 31.60668945 259.2121582 C32.49747307 257.11857477 33.39033674 255.02587435 34.28588867 252.93432617 C36.48097597 247.78234005 38.6143257 242.60778017 40.6796875 237.40234375 C41.09976074 236.346521 41.51983398 235.29069824 41.95263672 234.20288086 C43.08172663 231.23694558 43.08172663 231.23694558 42.875 227.375 C41.16137509 225.50848468 41.16137509 225.50848468 38.9375 223.875 C35.54416615 221.24172505 34.97352774 220.76911097 33.875 216.375 C10.445 216.375 -12.985 216.375 -37.125 216.375 C-37.62 190.14 -37.62 190.14 -38.125 163.375 C-40.6 164.365 -40.6 164.365 -43.125 165.375 C-46.4375 165.5 -46.4375 165.5 -49.125 165.375 C-50.20340793 161.00353905 -50.27010797 156.7400767 -50.2578125 152.265625 C-50.25876923 151.49820984 -50.25972595 150.73079468 -50.26071167 149.94012451 C-50.2613896 148.32645587 -50.25956243 146.71278444 -50.25537109 145.09912109 C-50.24998785 142.61940478 -50.25534417 140.13986718 -50.26171875 137.66015625 C-50.26105848 136.09114543 -50.25977837 134.52213473 -50.2578125 132.953125 C-50.26084885 131.83602142 -50.26084885 131.83602142 -50.26394653 130.6963501 C-50.2399713 125.4899713 -50.2399713 125.4899713 -49.125 124.375 C-47.12890625 124.4609375 -47.12890625 124.4609375 -44.6875 124.75 C-43.88441406 124.84023438 -43.08132813 124.93046875 -42.25390625 125.0234375 C-40.125 125.375 -40.125 125.375 -38.125 126.375 C-37.795 121.425 -37.465 116.475 -37.125 111.375 C-31.68 110.88 -31.68 110.88 -26.125 110.375 C-27.56875 109.42625 -29.0125 108.4775 -30.5 107.5 C-44.17510578 97.87319041 -54.08973538 85.09389304 -57.125 68.375 C-59.24420949 49.44078766 -55.16270554 34.50455218 -43.75 19.1875 C-31.64915946 6.22231371 -17.68591877 0.01926571 0 0 Z M-13.125 135.375 C-12.795 137.355 -12.465 139.335 -12.125 141.375 C-5.89538023 141.42559881 0.3341868 141.46069062 6.56396484 141.48486328 C8.6844277 141.49493751 10.80487661 141.50859733 12.92529297 141.52587891 C15.96845943 141.55006489 19.01144266 141.56146869 22.0546875 141.5703125 C23.48287308 141.58579636 23.48287308 141.58579636 24.93991089 141.60159302 C25.82067291 141.60174408 26.70143494 141.60189514 27.60888672 141.60205078 C28.77470779 141.60871262 28.77470779 141.60871262 29.96408081 141.61550903 C32.11573389 141.54311395 32.11573389 141.54311395 33.875 139.375 C33.70992354 136.79959787 33.70992354 136.79959787 32.875 134.375 C29.46446704 132.66973352 25.56897079 133.21179238 21.81640625 133.20703125 C20.91631332 133.20370285 20.0162204 133.20037445 19.08885193 133.19694519 C17.18318188 133.19187755 15.27750295 133.18953681 13.37182617 133.18969727 C10.45281384 133.18751147 7.53417976 133.16935601 4.61523438 133.15039062 C2.7656263 133.14745657 0.91601642 133.14547185 -0.93359375 133.14453125 C-2.24619423 133.13375298 -2.24619423 133.13375298 -3.58531189 133.12275696 C-4.80656517 133.1273719 -4.80656517 133.1273719 -6.05249023 133.13208008 C-6.76815659 133.13065506 -7.48382294 133.12923004 -8.22117615 133.12776184 C-10.45469142 133.27490217 -10.45469142 133.27490217 -13.125 135.375 Z " fill="#FCFCFC" transform="translate(461.125,373.625)"/>
<path d="M0 0 C0.73653809 0.32081543 1.47307617 0.64163086 2.23193359 0.97216797 C26.83217764 11.79143992 48.86600842 26.79908462 68.67578125 44.8984375 C70.70565015 46.73384837 72.7770936 48.49381444 74.875 50.25 C83.17718993 57.51650427 90.40270613 66.04976287 97.3125 74.625 C98.04206909 75.51264038 98.04206909 75.51264038 98.78637695 76.41821289 C100.11328125 78.1015625 100.11328125 78.1015625 102 81 C101.67 81.99 101.34 82.98 101 84 C93.57625118 84.16279133 86.15289224 84.28686871 78.72771454 84.3626852 C75.27909431 84.39909022 71.8317024 84.44839535 68.38378906 84.52807617 C64.41226338 84.61927439 60.44122038 84.65275967 56.46875 84.68359375 C54.62766663 84.73778725 54.62766663 84.73778725 52.74938965 84.79307556 C46.82825566 84.79577296 42.95340609 84.62597327 38.37915039 80.64208984 C37.23728343 79.44261152 36.10987385 78.22914135 35 77 C33.83805143 75.994999 32.66185 75.00594722 31.46484375 74.04296875 C30.8920166 73.57576416 30.31918945 73.10855957 29.72900391 72.62719727 C-13.74115472 37.69349252 -69.02850006 19.98108808 -124.81152344 25.76928711 C-151.8487441 28.97407319 -178.07578972 36.97796149 -202 50 C-202.59184082 50.31404785 -203.18368164 50.6280957 -203.79345703 50.95166016 C-217.46979546 58.22486575 -229.51631625 67.47593606 -241.1953125 77.58984375 C-242.12085938 78.38519531 -243.04640625 79.18054688 -244 80 C-244.76132736 80.70034363 -245.52265472 81.40068726 -246.30705261 82.12225342 C-249.48508218 84.33823958 -251.05871086 84.48750579 -254.8918457 84.45410156 C-256.05267166 84.45379944 -257.21349762 84.45349731 -258.40950012 84.45318604 C-259.65237289 84.43254089 -260.89524567 84.41189575 -262.17578125 84.390625 C-263.45607712 84.38496521 -264.73637299 84.37930542 -266.0554657 84.37347412 C-269.44727213 84.35825452 -272.83838548 84.31900634 -276.22991943 84.2746582 C-279.69550197 84.23362496 -283.1611973 84.21544605 -286.62695312 84.1953125 C-293.41826836 84.15122837 -300.20907136 84.08430178 -307 84 C-307 79.39770533 -306.40491024 78.77702707 -303.5625 75.375 C-302.8303125 74.49585938 -302.098125 73.61671875 -301.34375 72.7109375 C-298.36901813 69.2701643 -295.35704991 65.86963625 -292.2890625 62.51171875 C-290.74739771 60.8200968 -289.22154556 59.11394349 -287.7109375 57.39453125 C-283.09590153 52.15305569 -278.34959022 47.47656681 -273 43 C-272.113125 42.21367187 -271.22625 41.42734375 -270.3125 40.6171875 C-197.4191289 -23.62234004 -88.53620128 -38.93629999 0 0 Z " fill="#FEFEFE" transform="translate(643,306)"/>
<path d="M0 0 C7.67593018 -0.28070252 15.35131591 -0.49256794 23.03124237 -0.62174606 C26.5996849 -0.68382238 30.16456536 -0.7676555 33.73095703 -0.90527344 C61.85097952 -1.96172595 61.85097952 -1.96172595 72.26487732 7.32975769 C73.3762574 8.39471875 74.47309413 9.47515748 75.55169678 10.57330322 C77.49237243 12.485027 79.62100575 13.94344922 81.91015625 15.41015625 C82.59682373 15.85649414 83.28349121 16.30283203 83.9909668 16.76269531 C117.12874587 37.55533359 153.03088982 48.14238396 192 50 C192.79003418 50.04527832 193.58006836 50.09055664 194.39404297 50.13720703 C239.40395809 52.52932838 289.22010743 35.09853855 323.9453125 6.6328125 C324.96238281 5.82457031 324.96238281 5.82457031 326 5 C326.90806396 4.15139404 327.81612793 3.30278809 328.75170898 2.4284668 C334.23890539 -1.4471129 340.57592483 -0.61652938 347.02734375 -0.48828125 C348.38496085 -0.4789421 349.74259493 -0.4718312 351.10023499 -0.46684265 C354.65328457 -0.4478586 358.20529304 -0.3988359 361.75793457 -0.34332275 C365.3912142 -0.29194201 369.024664 -0.26928878 372.65820312 -0.24414062 C379.7725583 -0.19070581 386.88621076 -0.1055004 394 0 C394 4.83171472 393.16752303 5.36359856 389.9375 8.75 C389.11378906 9.62785156 388.29007813 10.50570312 387.44140625 11.41015625 C386.63574219 12.26480469 385.83007812 13.11945312 385 14 C383.7844509 15.38955408 382.57535871 16.78480292 381.375 18.1875 C374.86544432 25.61849963 367.74120583 31.86355522 360 38 C359.02160156 38.78375 358.04320312 39.5675 357.03515625 40.375 C304.15068067 81.98901357 237.03982316 102.21631856 169.87255859 95.12841797 C158.44551699 93.74359275 147.1764249 91.75104426 136 89 C134.90993652 88.73364746 134.90993652 88.73364746 133.79785156 88.46191406 C93.37445553 78.37853248 55.28075978 58.77709192 25 30 C23.6105999 28.78427491 22.21518409 27.57537389 20.8125 26.375 C13.19426531 19.71678676 5.65510344 12.43029308 0 4 C0 2.68 0 1.36 0 0 Z " fill="#FEFEFE" transform="translate(343,699)"/>
<path d="M0 0 C11.88 0 23.76 0 36 0 C36 31.35 36 62.7 36 95 C44.91 95 53.82 95 63 95 C63 63.65 63 32.3 63 0 C73.23 0 83.46 0 94 0 C94 42.9 94 85.8 94 130 C85.09 130 76.18 130 67 130 C67.04038134 138.24127419 67.09753429 146.48191545 67.18390274 154.72281837 C67.22334698 158.549767 67.25555011 162.37648659 67.27099609 166.20361328 C67.2861833 169.89974178 67.32066404 173.59524051 67.36830902 177.2910881 C67.38310181 178.69836313 67.39103981 180.10572808 67.39188385 181.5130806 C67.39426121 183.4901103 67.42366946 185.46705075 67.45410156 187.44384766 C67.46298401 188.56747711 67.47186646 189.69110657 67.48101807 190.8487854 C68.11350732 194.6892069 69.73989879 196.87838826 72 200 C72 200.66 72 201.32 72 202 C69.55675169 203.87754 67.10371774 205.63829944 64.5625 207.375 C63.00641708 208.45559477 61.45043034 209.53632806 59.89453125 210.6171875 C58.68531006 211.4520166 58.68531006 211.4520166 57.45166016 212.30371094 C53.53530654 215.01341268 49.64237428 217.75601963 45.75 220.5 C45.04818604 220.99161621 44.34637207 221.48323242 43.62329102 221.98974609 C40.71445244 224.03570093 37.89338148 226.08739223 35.140625 228.34375 C33 230 33 230 31 230 C31.13957123 229.29708328 31.27914246 228.59416656 31.42294312 227.86994934 C33.27072598 217.47357464 33.3489249 207.23054645 33.4140625 196.69921875 C33.4328103 194.76722928 33.45238629 192.83524768 33.4727478 190.90327454 C33.52369389 185.86138592 33.56351844 180.81947087 33.60089111 175.77746582 C33.64116834 170.61525129 33.69215147 165.45314316 33.7421875 160.29101562 C33.8385015 150.19407837 33.92205462 140.09709578 34 130 C24.43 130 14.86 130 5 130 C4.98598145 124.45022339 4.98598145 124.45022339 4.97167969 118.78833008 C4.93793773 106.57459306 4.88260583 94.36103431 4.81609726 82.14743519 C4.77629512 74.74110871 4.74390868 67.33488867 4.72900391 59.9284668 C4.71599338 53.47268789 4.68904437 47.01714305 4.64538693 40.56149596 C4.62275821 37.14351114 4.60709013 33.72581517 4.60811615 30.30774879 C4.60575767 26.49102082 4.57876568 22.67521259 4.54589844 18.85864258 C4.5509288 17.72647812 4.55595917 16.59431366 4.56114197 15.42784119 C4.54118746 9.30575335 4.54118746 9.30575335 1.96588135 3.88383484 C1.3171405 3.26216934 0.66839966 2.64050385 0 2 C0 1.34 0 0.68 0 0 Z " fill="#FEFEFE" transform="translate(31,436)"/>
<path d="M0 0 C12.21 0 24.42 0 37 0 C37 31.35 37 62.7 37 95 C45.91 95 54.82 95 64 95 C64 63.65 64 32.3 64 0 C74.23 0 84.46 0 95 0 C95 42.9 95 85.8 95 130 C86.09 130 77.18 130 68 130 C68.04038134 138.24127419 68.09753429 146.48191545 68.18390274 154.72281837 C68.22334698 158.549767 68.25555011 162.37648659 68.27099609 166.20361328 C68.2861833 169.89974178 68.32066404 173.59524051 68.36830902 177.2910881 C68.38310181 178.69836313 68.39103981 180.10572808 68.39188385 181.5130806 C68.39426121 183.4901103 68.42366946 185.46705075 68.45410156 187.44384766 C68.46298401 188.56747711 68.47186646 189.69110657 68.48101807 190.8487854 C69.11350732 194.6892069 70.73989879 196.87838826 73 200 C73 200.66 73 201.32 73 202 C71.50976563 203.22998047 71.50976563 203.22998047 69.40625 204.6171875 C68.24258911 205.39570068 68.24258911 205.39570068 67.05541992 206.18994141 C66.21213135 206.74601074 65.36884277 207.30208008 64.5 207.875 C57.23511422 212.73923749 50.1564691 217.76150105 43.25390625 223.12841797 C39.657822 225.89147313 36.15331501 228.10461275 32 230 C32.13957123 229.29708328 32.27914246 228.59416656 32.42294312 227.86994934 C34.27072598 217.47357464 34.3489249 207.23054645 34.4140625 196.69921875 C34.4328103 194.76722928 34.45238629 192.83524768 34.4727478 190.90327454 C34.52369389 185.86138592 34.56351844 180.81947087 34.60089111 175.77746582 C34.64116834 170.61525129 34.69215147 165.45314316 34.7421875 160.29101562 C34.8385015 150.19407837 34.92205462 140.09709578 35 130 C25.43 130 15.86 130 6 130 C5.99589111 126.31062256 5.99178223 122.62124512 5.98754883 118.82006836 C5.97035138 106.63027366 5.92610138 94.44071813 5.86790943 82.25105953 C5.83328801 74.86045484 5.80790768 67.4700361 5.80444336 60.0793457 C5.80139947 53.63596832 5.78085235 47.19292236 5.73947543 40.74967295 C5.71818166 37.33938369 5.70552573 33.92956517 5.71384621 30.51920891 C5.7187414 26.70752351 5.69270311 22.89721014 5.65942383 19.08569336 C5.66804947 17.96071945 5.67667511 16.83574554 5.68556213 15.67668152 C5.67027466 14.63211792 5.65498718 13.58755432 5.63923645 12.51133728 C5.63508838 11.16044966 5.63508838 11.16044966 5.63085651 9.78227139 C4.95933213 5.98868746 4.95933213 5.98868746 0 0 Z " fill="#FEFEFE" transform="translate(223,436)"/>
<path d="M0 0 C9.33701595 -0.25709733 18.67277859 -0.45141911 28.01258659 -0.56993389 C32.35163974 -0.62687432 36.68823838 -0.70382858 41.02587891 -0.82983398 C78.20816472 -1.87925455 78.20816472 -1.87925455 89.25341797 7.55786133 C93.42900078 12.1030198 93.84020976 16.59869925 93.62158203 22.58666992 C93.45770996 24.10494385 93.29383789 25.62321777 93.125 27.1875 C92.568125 34.5196875 92.568125 34.5196875 92 42 C80.45 42 68.9 42 57 42 C57 39.69 57 37.38 57 35 C50.73 35 44.46 35 38 35 C38.33 70.64 38.66 106.28 39 143 C44.61 139.04 50.22 135.08 56 131 C56.33 126.38 56.66 121.76 57 117 C68.55 117 80.1 117 92 117 C92.375 133.25 92.375 133.25 92.47802734 138.36035156 C92.51324814 139.70379589 92.54917104 141.04722208 92.5859375 142.390625 C92.59729736 143.08269043 92.60865723 143.77475586 92.62036133 144.48779297 C92.7296369 148.13470045 93.0130114 150.89053714 95 154 C94.40316406 154.41507813 93.80632812 154.83015625 93.19140625 155.2578125 C86.36583888 160.10568947 79.91181489 165.30280381 73.47509766 170.65063477 C69.01208468 174.35468896 64.51297401 177.99838418 59.9375 181.5625 C54.90795877 185.48159487 49.93957567 189.46809131 45 193.5 C38.3104261 198.95679819 31.5528196 204.31811141 24.74853516 209.63085938 C22.91534172 211.06628926 21.08792487 212.50881791 19.26171875 213.953125 C18.64248535 214.44216309 18.02325195 214.93120117 17.38525391 215.43505859 C16.21604745 216.35870977 15.04767725 217.28342107 13.88037109 218.20947266 C10.00447742 221.26620417 6.03370888 224.15447591 2 227 C2.40701001 222.65855989 2.83684766 218.58791418 4.00874424 214.36502266 C5.10902884 209.99964691 5.28843373 205.8946806 5.27415466 201.40963745 C5.27939134 200.58215787 5.28462802 199.75467829 5.29002339 198.90212357 C5.30493894 196.14938013 5.30572665 193.39682393 5.30639648 190.64404297 C5.31402328 188.66247243 5.32245167 186.68090483 5.33161926 184.69934082 C5.35351083 179.33180851 5.36235516 173.96433313 5.36744571 168.59676123 C5.37109346 165.24244992 5.37733549 161.88815345 5.3844471 158.53384781 C5.4089162 146.83001298 5.42198947 135.12622238 5.42553711 123.42236328 C5.42917764 112.51360666 5.45911665 101.60513047 5.50094169 90.69645965 C5.5356112 81.32557169 5.55108492 71.95477691 5.55178314 62.58382523 C5.55257663 56.98891083 5.56134991 51.39428276 5.58978081 45.79943466 C5.61590636 40.54125669 5.6181974 35.28360373 5.60212517 30.02539062 C5.60030671 28.09604881 5.60703708 26.16667715 5.62294388 24.23740005 C5.64333997 21.60310755 5.63289187 18.97066362 5.61473083 16.33639526 C5.6279308 15.57335771 5.64113077 14.81032017 5.65473074 14.02416027 C5.56322379 8.21199736 3.81585171 6.03658883 0 2 C0 1.34 0 0.68 0 0 Z " fill="#FEFEFE" transform="translate(127,436)"/>
<path d="M0 0 C14.52 0 29.04 0 44 0 C41 5 41 5 39 7 C38.70091227 9.49257998 38.70091227 9.49257998 38.75949097 12.44155884 C38.75674164 13.59704727 38.75399231 14.75253571 38.75115967 15.94303894 C38.75835022 17.21689957 38.76554077 18.49076019 38.77294922 19.80322266 C38.77351314 21.15325411 38.77319714 22.50328617 38.77206421 23.85331726 C38.77148895 27.52462276 38.78327108 31.19579831 38.79721212 34.86707354 C38.8096908 38.70144529 38.81088772 42.53581982 38.81326294 46.37020874 C38.81948615 53.63398585 38.8359083 60.89770295 38.85596192 68.1614536 C38.8782948 76.42977438 38.88930777 84.69809798 38.89935279 92.96644139 C38.92027383 109.97766234 38.9554661 126.98882483 39 144 C39.4439209 143.64172119 39.8878418 143.28344238 40.34521484 142.91430664 C42.35361397 141.29513011 44.36427412 139.67878604 46.375 138.0625 C47.07367188 137.49853516 47.77234375 136.93457031 48.4921875 136.35351562 C49.1625 135.81533203 49.8328125 135.27714844 50.5234375 134.72265625 C51.450354 133.97640991 51.450354 133.97640991 52.39599609 133.21508789 C54 132 54 132 56 131 C56.33 126.38 56.66 121.76 57 117 C68.55 117 80.1 117 92 117 C92.32413007 122.36358092 92.60123202 127.69271428 92.76904297 133.05834961 C92.83896853 134.87593074 92.93416627 136.69273775 93.05615234 138.50756836 C94.01270356 153.11707965 94.01270356 153.11707965 90.70959473 157.84832764 C87.45319819 161.17039628 83.69277905 163.61001308 79.70367432 165.96640015 C77.50603736 167.29968152 75.57908358 168.86579891 73.625 170.53125 C72.71814453 171.2727832 72.71814453 171.2727832 71.79296875 172.02929688 C71.20128906 172.51462891 70.60960937 172.99996094 70 173.5 C64.47772885 178.0089612 58.90812794 182.44844804 53.2890625 186.8359375 C48.81563211 190.3377631 44.40135526 193.90814394 40 197.5 C34.34211236 202.11672177 28.64571333 206.67737151 22.88696289 211.16772461 C18.59109778 214.51903381 14.36887001 217.95246712 10.18359375 221.44140625 C7.87499148 223.0892279 5.66629723 224.05812699 3 225 C3.33 224.01 3.66 223.02 4 222 C4.14475395 220.60469102 4.24356513 219.20429811 4.31129932 217.80313683 C4.3731357 216.54852085 4.3731357 216.54852085 4.4362213 215.2685591 C4.47489721 214.36777487 4.51357312 213.46699064 4.55342102 212.53890991 C4.59552147 211.59960141 4.63762192 210.6602929 4.68099815 209.6925205 C5.07642656 200.25286905 5.14839479 190.82397705 5.14526367 181.37744141 C5.14826738 179.52365554 5.15167261 177.66987029 5.15544128 175.81608582 C5.16414944 170.85627034 5.16661335 165.89647218 5.16725707 160.9366498 C5.16797364 157.83034751 5.170119 154.72404948 5.17275429 151.61774826 C5.18195462 140.76208979 5.18609473 129.90644349 5.18530273 119.05078125 C5.18469911 108.9547345 5.19532002 98.85874068 5.2110464 88.76270735 C5.22411801 80.05905934 5.22948699 71.3554287 5.22884732 62.65177095 C5.2285928 57.46791797 5.23142076 52.28411245 5.24202538 47.10026932 C5.25170323 42.23930482 5.25178772 37.37843336 5.24450874 32.51746559 C5.24346345 30.73689831 5.24582249 28.95632522 5.2518692 27.1757679 C5.259598 24.74228299 5.25493904 22.30911898 5.24723816 19.87564087 C5.25238172 19.17496605 5.25752529 18.47429122 5.26282471 17.75238383 C5.22706953 12.62601413 4.9201382 7.14169261 1.375 3.1875 C0.694375 2.5996875 0.694375 2.5996875 0 2 C0 1.34 0 0.68 0 0 Z " fill="#FEFEFE" transform="translate(320,436)"/>
<path d="M0 0 C1.05589325 -0.00137466 2.1117865 -0.00274933 3.19967651 -0.00416565 C4.357733 -0.00057037 5.51578949 0.0030249 6.7089386 0.00672913 C7.928573 0.0065831 9.1482074 0.00643707 10.40480042 0.00628662 C13.74958156 0.00686434 17.09430116 0.01188326 20.43907142 0.01886058 C23.93444624 0.02510741 27.42982187 0.02569897 30.92520142 0.02688599 C37.54435372 0.02999537 44.16348952 0.03820349 50.78263456 0.04823548 C58.31822957 0.05940878 65.85382536 0.06491014 73.38942659 0.06993091 C88.8908783 0.08038641 104.39231355 0.09797828 119.89375305 0.12025452 C119.25390392 1.40025722 118.61401988 2.68024246 117.97412109 3.96022034 C117.61778941 4.67301399 117.26145773 5.38580765 116.89432812 6.12020111 C114.93918839 10.02833755 112.90990316 13.84608111 110.70625305 17.62025452 C110.29439758 18.44267639 109.88254211 19.26509827 109.45820618 20.11244202 C107.78661169 22.88080483 106.64513862 24.37943732 103.89375305 26.12025452 C98.28588536 27.14830853 92.53600487 26.60486024 86.89375305 26.12025452 C86.922621 26.67718994 86.95148895 27.23412537 86.98123169 27.80793762 C87.27348599 33.71397407 87.4667207 39.61790267 87.60786438 45.5294342 C87.67242734 47.72169111 87.76052158 49.91340744 87.87446594 52.10365295 C88.75489412 69.48912168 85.3955051 80.82575251 73.89375305 94.12025452 C72.57375305 95.44025452 71.25375305 96.76025452 69.89375305 98.12025452 C69.89375305 74.36025452 69.89375305 50.60025452 69.89375305 26.12025452 C61.64375305 26.12025452 53.39375305 26.12025452 44.89375305 26.12025452 C44.39875305 21.66525452 44.39875305 21.66525452 43.89375305 17.12025452 C43.70281067 17.76341614 43.51186829 18.40657776 43.31513977 19.06922913 C41.87749137 22.30818121 40.72218636 23.93388706 37.89375305 26.12025452 C31.16837365 27.76266941 23.87181562 26.95745291 17.01875305 26.68275452 C15.07092821 26.63758803 13.12300355 26.59652721 11.17500305 26.55970764 C6.41211847 26.46074069 1.65402776 26.30558399 -3.10624695 26.12025452 C-3.10624695 27.77025452 -3.10624695 29.42025452 -3.10624695 31.12025452 C-2.17876648 31.09930725 -1.25128601 31.07835999 -0.29570007 31.05677795 C3.17836134 30.98819953 6.65169317 30.93826125 10.12617493 30.90052795 C11.62368695 30.88053533 13.12112213 30.85333153 14.61836243 30.8184967 C30.29747469 30.46310349 30.29747469 30.46310349 36.89375305 35.12025452 C43.41916977 41.70977159 45.96232942 50.88817516 46.33125305 59.93275452 C46.02896399 69.71936291 43.46904693 78.3762586 36.7726593 85.63197327 C32.76224605 88.80862077 28.92628451 89.36878784 23.91011047 89.3473053 C22.13884041 89.3470787 22.13884041 89.3470787 20.33178711 89.34684753 C18.43466728 89.33136368 18.43466728 89.33136368 16.4992218 89.31556702 C14.54548393 89.31132217 14.54548393 89.31132217 12.55227661 89.30699158 C9.10152921 89.29938148 5.65095207 89.27975586 2.20027161 89.25758362 C-1.32570595 89.2370684 -4.8517112 89.22797776 -8.37773132 89.21791077 C-15.28730616 89.19650724 -22.19676836 89.16240326 -29.10624695 89.12025452 C-27.9038561 86.04540744 -26.72050687 83.29556661 -24.86405945 80.56166077 C-24.22403992 79.61129944 -24.22403992 79.61129944 -23.5710907 78.64173889 C-23.12894226 77.99527405 -22.68679382 77.3488092 -22.23124695 76.68275452 C-21.79683289 76.04015686 -21.36241882 75.3975592 -20.9148407 74.73548889 C-20.0942559 73.52186123 -19.27176008 72.30952147 -18.44657898 71.09901428 C-16.94938158 68.98642667 -16.94938158 68.98642667 -15.5344696 65.92616272 C-13.10624695 63.12025452 -13.10624695 63.12025452 -11.16694641 62.59835815 C-8.67246431 62.42400401 -6.24594705 62.44598967 -3.74687195 62.53431702 C-2.39030487 62.54705154 -2.39030487 62.54705154 -1.0063324 62.56004333 C1.87824862 62.59359367 4.76001926 62.66887376 7.64375305 62.74525452 C9.60074389 62.77535211 11.55777861 62.80272828 13.5148468 62.82728577 C18.30889607 62.8933902 23.10084837 62.99692166 27.89375305 63.12025452 C27.56375305 61.47025452 27.23375305 59.82025452 26.89375305 58.12025452 C25.89521301 58.11090881 24.89667297 58.10156311 23.86787415 58.0919342 C20.14379663 58.05189707 16.42053339 57.98610185 12.69697571 57.91273499 C11.08900964 57.88460447 9.48090733 57.86335063 7.87275696 57.84925842 C5.55352938 57.82771761 3.2359261 57.7810158 0.91719055 57.72962952 C0.20444977 57.72840088 -0.50829102 57.72717224 -1.24263 57.72590637 C-6.30190268 57.5792521 -9.18824474 56.27091113 -13.10624695 53.12025452 C-19.96655567 44.7647503 -21.98386211 34.70765446 -21.10624695 24.12025452 C-20.11891868 16.12428612 -17.19039341 8.49533653 -10.98124695 3.12025452 C-7.14647518 0.4525872 -4.5547434 -0.00456845 0 0 Z " fill="#FEFEFE" transform="translate(716.1062469482422,486.87974548339844)"/>
<path d="M0 0 C5.65587346 -0.09958872 11.31122578 -0.17180596 16.96777344 -0.21972656 C18.88811139 -0.23972336 20.80838939 -0.26693006 22.72851562 -0.30175781 C44.93020927 -0.69409543 44.93020927 -0.69409543 53.55078125 5.97265625 C64.17007202 18.56981935 68.01978202 33.92012619 66.84082031 50.19775391 C65.52065212 62.31905328 61.94422449 74.26873323 53 83 C48.41649848 86.30228653 44.32165644 88.50888037 38.75 89.6875 C34.37832413 88.88602609 34.07736584 88.35964077 31.625 84.875 C30.39989675 82.92711373 29.19359233 80.9673526 28 79 C27.1911054 77.75980614 26.37706025 76.52296034 25.55859375 75.2890625 C19 65.3452234 19 65.3452234 19 63 C19.60996826 62.9906543 20.21993652 62.98130859 20.84838867 62.97167969 C23.62889487 62.91778674 26.40775262 62.83417931 29.1875 62.75 C30.14720703 62.73582031 31.10691406 62.72164062 32.09570312 62.70703125 C36.47567424 62.55547516 39.26285982 62.44848962 43.0625 60.13671875 C48.25897303 54.40593095 48.53661237 48.66386416 48.35546875 41.16796875 C47.87234836 36.86235732 46.7144517 33.40144256 44 30 C37.76298295 24.7340248 37.76298295 24.7340248 17 26 C17 49.76 17 73.52 17 98 C14.02231141 95.02231141 12.15239029 92.93678287 10.01953125 89.48828125 C9.49552734 88.64845703 8.97152344 87.80863281 8.43164062 86.94335938 C7.89732422 86.07517578 7.36300781 85.20699219 6.8125 84.3125 C5.7367086 82.57878659 4.65993853 80.84567994 3.58203125 79.11328125 C3.10999268 78.34798096 2.6379541 77.58268066 2.15161133 76.79418945 C1.12393861 75.05289791 1.12393861 75.05289791 0 74 C-0.09443335 71.69946165 -0.11742128 69.39597827 -0.11352539 67.09350586 C-0.11367142 66.37159561 -0.11381744 65.64968536 -0.1139679 64.90589905 C-0.11326869 62.50885053 -0.10547595 60.11187877 -0.09765625 57.71484375 C-0.0957921 56.05717511 -0.09436818 54.39950593 -0.09336853 52.74183655 C-0.08954312 48.37045786 -0.07971265 43.99911219 -0.06866455 39.62774658 C-0.05845092 35.17045539 -0.05387101 30.71315889 -0.04882812 26.25585938 C-0.0380904 17.50389107 -0.02101371 8.75194964 0 0 Z " fill="#FEFEFE" transform="translate(901,487)"/>
<path d="M0 0 C2.8125 2.4375 2.8125 2.4375 5 5 C5.66 5.70125 6.32 6.4025 7 7.125 C13.92805947 17.08408549 16.39357902 27.85913546 16.3125 39.8125 C16.30686035 40.6890625 16.3012207 41.565625 16.29541016 42.46875 C16.02678602 56.87338712 11.63949251 70.09476854 1.22265625 80.37890625 C-4.65610014 84.66657567 -9.85088524 85.50328292 -16.9375 85.4375 C-17.69740234 85.45748047 -18.45730469 85.47746094 -19.24023438 85.49804688 C-26.2111246 85.49209394 -31.29717728 83.25235227 -36.625 78.8125 C-49.10932507 64.02843084 -50.98770257 48.73342546 -50 30 C-48.73349947 19.94312716 -44.24896399 9.24896399 -37 2 C-26.68742266 -5.48838604 -11.01573004 -7.53965523 0 0 Z M-27.6875 23.9375 C-32.42234521 30.20797068 -34.02317483 37.21557528 -33 45 C-31.72244993 50.13797312 -29.65612638 54.1079945 -26 58 C-23.19892988 59.40053506 -20.81108319 59.2075504 -17.6875 59.25 C-16.55699219 59.27578125 -15.42648437 59.3015625 -14.26171875 59.328125 C-10.64786852 58.96457599 -8.86662493 58.19153224 -6 56 C-1.26514725 49.99787784 -0.31879116 43.39598164 -1 36 C-2.24688434 30.86577036 -4.35641009 26.87866023 -8 23 C-13.16693173 20.41653413 -22.93404669 20.41776739 -27.6875 23.9375 Z " fill="#FEFEFE" transform="translate(1041,491)"/>
<path d="M0 0 C0.33 0 0.66 0 1 0 C1.01213028 0.981465 1.01213028 0.981465 1.02450562 1.98275757 C1.11095906 8.8293511 1.21047777 15.67566859 1.31738281 22.52197266 C1.35552584 25.07270653 1.39040357 27.6234915 1.421875 30.17431641 C1.46784528 33.85337514 1.5257864 37.53208651 1.5859375 41.2109375 C1.59748871 42.34050873 1.60903992 43.47007996 1.62094116 44.63388062 C1.79525389 58.63154261 1.79525389 58.63154261 9 70 C11.79731805 71.39865903 14.19284559 71.24537267 17.3125 71.3125 C19.00826172 71.36857422 19.00826172 71.36857422 20.73828125 71.42578125 C24.77500663 70.89883147 26.22420785 69.95734138 29 67 C32.4292928 60.79877353 32.47034406 55.1494792 32.51171875 48.16015625 C32.52966995 47.03806259 32.54762115 45.91596893 32.56611633 44.75987244 C32.6200749 41.19411925 32.65406951 37.62849885 32.6875 34.0625 C32.72068573 31.63735138 32.75517655 29.21222024 32.79101562 26.78710938 C32.87579349 20.85816892 32.94267415 14.92926686 33 9 C38.94 9 44.88 9 51 9 C51.04990928 15.57957895 51.08595787 22.15904462 51.10986328 28.73876953 C51.11984247 30.97121097 51.1334306 33.2036396 51.15087891 35.43603516 C51.45177128 74.95913353 51.45177128 74.95913353 38.90234375 90.08984375 C32.05346181 96.96685251 25.0299943 98.35107423 15.62158203 98.3828125 C7.04882937 98.20848836 1.16927054 95.57359378 -4.8125 89.375 C-15.48117752 75.91991494 -16.71943315 58.57543353 -16.8125 42.0625 C-16.81912659 41.26629242 -16.82575317 40.47008484 -16.83258057 39.64974976 C-16.85310864 26.71722752 -15.27644774 18.45617028 -6 9 C-4.7728216 7.21412607 -3.57890497 5.404376 -2.4375 3.5625 C-1.65326103 2.35614941 -0.85170566 1.15970254 0 0 Z " fill="#FEFEFE" transform="translate(847,478)"/>
<path d="M0 0 C0.33 0 0.66 0 1 0 C1 32.34 1 64.68 1 98 C-4.61 98 -10.22 98 -16 98 C-16.18153264 88.55890632 -16.32795654 79.11899206 -16.41449738 69.67654037 C-16.45605616 65.29085639 -16.51232072 60.90643934 -16.60351562 56.52148438 C-16.69114577 52.28086358 -16.73841893 48.0414525 -16.75901794 43.79999542 C-16.77367558 42.19088976 -16.80229726 40.58184216 -16.84584045 38.97325897 C-17.14135788 27.59211343 -15.3819683 20.95577005 -8 12 C-7.14873178 10.74723304 -6.31295598 9.48356289 -5.50390625 8.203125 C-4.86324219 7.22859375 -4.22257813 6.2540625 -3.5625 5.25 C-2.90378906 4.24453125 -2.24507812 3.2390625 -1.56640625 2.203125 C-1.04949219 1.47609375 -0.53257812 0.7490625 0 0 Z " fill="#FEFEFE" transform="translate(987,478)"/>
</svg>
